<svg width="400" height="401" viewBox="0 0 400 401" fill="none" xmlns="http://www.w3.org/2000/svg">
<path fill-rule="evenodd" clip-rule="evenodd" d="M132 69.5C132 31.1162 163.116 0 201.5 0C239.884 0 271 31.1162 271 69.5C271 103.792 246.165 132.283 213.5 137.968V373C313.5 369.5 373 276.5 373 215H331.5V188.5H400V215C400 298 315.5 401 201.5 401C59.5 401 0 269 2 219.5L0 188.5H71V215H28.5C28.5 302 115 373 187.5 373V137.589C155.827 131.111 132 103.088 132 69.5ZM201.5 111.891C178.088 111.891 159.109 92.9117 159.109 69.5C159.109 46.0883 178.088 27.1094 201.5 27.1094C224.912 27.1094 243.891 46.0883 243.891 69.5C243.891 92.9117 224.912 111.891 201.5 111.891Z" fill="white"/>
</svg>
