<svg width="843" height="2092" viewBox="0 0 843 2092" fill="none" xmlns="http://www.w3.org/2000/svg">
<g id="Frame 75">
<g id="anchor">
<path fill-rule="evenodd" clip-rule="evenodd" d="M132 69.5C132 31.1162 163.116 0 201.5 0C239.884 0 271 31.1162 271 69.5C271 103.792 246.165 132.283 213.5 137.968V373C313.5 369.5 373 276.5 373 215H331.5V188.5H400V215C400 298 315.5 401 201.5 401C59.5 401 0 269 2 219.5L0 188.5H71V215H28.5C28.5 302 115 373 187.5 373V137.589C155.827 131.111 132 103.088 132 69.5ZM201.5 111.891C178.088 111.891 159.109 92.9117 159.109 69.5C159.109 46.0883 178.088 27.1094 201.5 27.1094C224.912 27.1094 243.891 46.0883 243.891 69.5C243.891 92.9117 224.912 111.891 201.5 111.891Z" fill="white"/>
</g>
<g id="phone">
<path fill-rule="evenodd" clip-rule="evenodd" d="M52 774H242C270.719 774 294 797.281 294 826V1133C294 1161.72 270.719 1185 242 1185H52C23.2812 1185 0 1161.72 0 1133V826C0 797.281 23.2812 774 52 774ZM243 799H51C36.0883 799 24 811.088 24 826V1133C24 1147.91 36.0883 1160 51 1160H243C257.912 1160 270 1147.91 270 1133V826C270 811.088 257.912 799 243 799Z" fill="white"/>
<path d="M146 1082.5C138 1082.5 134 1089 134 1095C134 1101 139 1107 146 1107C153.5 1107 159 1102 159 1095C159 1088 154 1082.5 146 1082.5Z" fill="white"/>
</g>
<path id="desktop" fill-rule="evenodd" clip-rule="evenodd" d="M0 2007V1733C0 1707.59 20.5949 1687 46 1687H404.5C429.905 1687 450.5 1707.59 450.5 1733V2007H243.5V2058H309V2092H144V2058H211V2007H0ZM72 1722C52.1178 1722 36 1738.12 36 1758V1974H417.5V1758C417.5 1738.12 401.382 1722 381.5 1722H72Z" fill="white"/>
</g>
</svg>
